<?xml version="1.0" encoding="UTF-8" standalone="no"?>
<!-- Created with Inkscape (http://www.inkscape.org/) -->

<svg
   xmlns:dc="http://purl.org/dc/elements/1.1/"
   xmlns:cc="http://creativecommons.org/ns#"
   xmlns:rdf="http://www.w3.org/1999/02/22-rdf-syntax-ns#"
   xmlns:svg="http://www.w3.org/2000/svg"
   xmlns="http://www.w3.org/2000/svg"
   xmlns:sodipodi="http://sodipodi.sourceforge.net/DTD/sodipodi-0.dtd"
   xmlns:inkscape="http://www.inkscape.org/namespaces/inkscape"
   width="5.2916665mm"
   height="9.2604465mm"
   viewBox="0 0 5.2916665 9.2604465"
   version="1.1"
   id="svg223"
   inkscape:version="0.92.4 (fd57863, 2020-04-02)"
   sodipodi:docname="love.svg">
  <defs
     id="defs217" />
  <sodipodi:namedview
     id="base"
     pagecolor="#ffffff"
     bordercolor="#666666"
     borderopacity="1.0"
     inkscape:pageopacity="0.0"
     inkscape:pageshadow="2"
     inkscape:zoom="11.2"
     inkscape:cx="10.000016"
     inkscape:cy="14.763323"
     inkscape:document-units="mm"
     inkscape:current-layer="layer1"
     showgrid="false"
     fit-margin-top="0"
     fit-margin-left="0"
     fit-margin-right="0"
     fit-margin-bottom="0"
     inkscape:window-width="1366"
     inkscape:window-height="704"
     inkscape:window-x="0"
     inkscape:window-y="27"
     inkscape:window-maximized="1" />
  <metadata
     id="metadata220">
    <rdf:RDF>
      <cc:Work
         rdf:about="">
        <dc:format>image/svg+xml</dc:format>
        <dc:type
           rdf:resource="http://purl.org/dc/dcmitype/StillImage" />
        <dc:title></dc:title>
      </cc:Work>
    </rdf:RDF>
  </metadata>
  <g
     inkscape:label="Layer 1"
     inkscape:groupmode="layer"
     id="layer1"
     transform="translate(-103.73853,-146.2787)">
    <g
       id="g351">
      <g
         transform="matrix(0.26458333,0,0,0.26458333,103.73853,151.04123)"
         id="g284"
         style="fill:none">
        <path
           style="fill:#ff6767"
           inkscape:connector-curvature="0"
           d="M 18.4134,1.66367 C 17.3781,0.590857 15.9575,0 14.413,0 13.2585,0 12.2012,0.348712 11.2704,1.03637 10.8008,1.38348 10.3752,1.80814 10,2.3038 9.62494,1.80829 9.19922,1.38348 8.7294,1.03637 7.79877,0.348712 6.74149,0 5.58701,0 4.04251,0 2.62177,0.590857 1.58646,1.66367 0.563507,2.72395 0,4.17244 0,5.74252 c 0,1.616 0.630341,3.09526 1.98364,4.65538 1.21063,1.3956 2.95059,2.8123 4.96552,4.4528 0.68802,0.5603 1.46789,1.1953 2.27768,1.8717 C 9.44077,16.9015 9.71527,17 10,17 c 0.2846,0 0.5592,-0.0985 0.7729,-0.2773 0.8097,-0.6766 1.5901,-1.3119 2.2784,-1.8724 2.0146,-1.6402 3.7546,-3.0568 4.9652,-4.4525 C 19.3698,8.83778 20,7.35852 20,5.74238 20,4.17244 19.4365,2.72395 18.4134,1.66367 Z"
           id="path273" />
      </g>
      <g
         transform="matrix(0.26458333,0,0,0.26458333,103.73853,146.2787)"
         id="g345"
         style="fill:none">
        <path
           style="fill:#ff6767"
           inkscape:connector-curvature="0"
           d="M 10,17 C 9.71527,17 9.44077,16.9015 9.22684,16.7224 8.41888,16.0475 7.63992,15.4132 6.95267,14.8536 L 6.94916,14.8507 C 4.93423,13.2102 3.19427,11.7935 1.98364,10.3979 0.630341,8.83778 0,7.35852 0,5.74252 0,4.17244 0.563507,2.72395 1.58661,1.66367 2.62192,0.590857 4.04251,0 5.58716,0 6.74164,0 7.79892,0.348712 8.72955,1.03637 9.19922,1.38348 9.62494,1.80829 10,2.3038 10.3752,1.80829 10.8008,1.38348 11.2706,1.03637 12.2012,0.348712 13.2585,0 14.413,0 15.9575,0 17.3782,0.590857 18.4135,1.66367 19.4366,2.72395 20,4.17244 20,5.74252 c 0,1.616 -0.6302,3.09526 -1.9835,4.65528 -1.2106,1.3957 -2.9504,2.8123 -4.965,4.4526 -0.6885,0.5604 -1.4687,1.1957 -2.2785,1.8723 C 10.5592,16.9015 10.2846,17 10,17 Z M 5.58716,1.11932 c -1.21353,0 -2.32834,0.46271 -3.13935,1.303 -0.82305,0.85298 -1.27639,2.03207 -1.27639,3.3202 0,1.35913 0.52871,2.57467 1.71417,3.94123 1.14578,1.32095 2.85004,2.70855 4.8233,4.31515 l 0.00366,0.0029 c 0.68985,0.5617 1.47187,1.1985 2.28577,1.8784 0.81878,-0.6812 1.60198,-1.319 2.29328,-1.8816 1.9731,-1.6066 3.6772,-2.9939 4.823,-4.31485 1.1853,-1.36656 1.714,-2.5821 1.714,-3.94123 0,-1.28813 -0.4534,-2.46722 -1.2764,-3.3202 -0.8109,-0.84029 -1.9258,-1.303 -3.1392,-1.303 -0.889,0 -1.7052,0.26999 -2.4258,0.80239 -0.6423,0.47466 -1.0897,1.07471 -1.352,1.49456 C 10.5003,3.63217 10.2629,3.76105 10,3.76105 9.73709,3.76105 9.49966,3.63217 9.36478,3.41627 9.10263,2.99642 8.65524,2.39637 8.01285,1.92171 7.29218,1.38931 6.47598,1.11932 5.58716,1.11932 Z"
           id="path334" />
      </g>
    </g>
  </g>
</svg>
